<?xml version="1.0" encoding="UTF-8"?>
<svg xmlns="http://www.w3.org/2000/svg" viewBox="0 0 92 56" width="920" height="560">
  <title>PS1 interior - strawberries</title>
  <rect width="92" height="56" fill="#f8fafc"/>
  <text x="46" y="7" text-anchor="middle" font-family="Arial, Helvetica, sans-serif" font-size="3.2" font-weight="bold" fill="#0f172a">PS1 partial sun | Zone 2 | 6 ft x 3 ft (inches)</text>
  <g id="bed-interior">
    <rect x="10" y="10" width="72" height="36" fill="#e8d4c4" stroke="#44403c" stroke-width="0.5"/>
    <text x="46" y="8.5" text-anchor="middle" font-family="Arial" font-size="2.2" fill="#57534e">N (fence)</text>
  </g>
  <g id="plants" font-family="Arial, Helvetica, sans-serif" font-weight="bold" fill="#9f1239">
    <circle cx="28" cy="24" r="3" fill="#fecdd3" stroke="#be123c" stroke-width="0.4"/><text x="28" y="25.2" text-anchor="middle" font-size="2">S</text>
    <circle cx="46" cy="24" r="3" fill="#fecdd3" stroke="#be123c" stroke-width="0.4"/><text x="46" y="25.2" text-anchor="middle" font-size="2">S</text>
    <circle cx="64" cy="24" r="3" fill="#fecdd3" stroke="#be123c" stroke-width="0.4"/><text x="64" y="25.2" text-anchor="middle" font-size="2">S</text>
    <circle cx="28" cy="34" r="3" fill="#fecdd3" stroke="#be123c" stroke-width="0.4"/><text x="28" y="35.2" text-anchor="middle" font-size="2">S</text>
    <circle cx="46" cy="34" r="3" fill="#fecdd3" stroke="#be123c" stroke-width="0.4"/><text x="46" y="35.2" text-anchor="middle" font-size="2">S</text>
    <circle cx="64" cy="34" r="3" fill="#fecdd3" stroke="#be123c" stroke-width="0.4"/><text x="64" y="35.2" text-anchor="middle" font-size="2">S</text>
    <text x="46" y="44" text-anchor="middle" font-size="2" fill="#64748b" font-weight="normal">6 plants | use lower GPH than FS (PLAN)</text>
  </g>
  <g id="irrigation" fill="none">
    <text x="10" y="52" font-family="Arial" font-size="2.2" fill="#1d4ed8" font-weight="bold">1/4 in | Zone 2 | ~1 GPH, tune down vs FS (partial sun)</text>
    <polyline points="12,12 78,12" stroke="#78350f" stroke-width="0.6"/>
    <line x1="28" y1="12" x2="28" y2="21" stroke="#78350f" stroke-width="0.4"/><line x1="46" y1="12" x2="46" y2="21" stroke="#78350f" stroke-width="0.4"/><line x1="64" y1="12" x2="64" y2="21" stroke="#78350f" stroke-width="0.4"/>
    <line x1="28" y1="12" x2="28" y2="31" stroke="#78350f" stroke-width="0.4"/><line x1="46" y1="12" x2="46" y2="31" stroke="#78350f" stroke-width="0.4"/><line x1="64" y1="12" x2="64" y2="31" stroke="#78350f" stroke-width="0.4"/>
    <circle cx="12" cy="12" r="1.8" fill="#1d4ed8" stroke="#1e3a8a" stroke-width="0.3"/><text x="12" y="13.2" text-anchor="middle" font-size="1.6" fill="#fff" font-weight="bold">M</text>
    <circle cx="28" cy="21" r="1.1" fill="#7dd3fc" stroke="#0284c7" stroke-width="0.25"/>
    <circle cx="46" cy="21" r="1.1" fill="#7dd3fc" stroke="#0284c7" stroke-width="0.25"/>
    <circle cx="64" cy="21" r="1.1" fill="#7dd3fc" stroke="#0284c7" stroke-width="0.25"/>
    <circle cx="28" cy="31" r="1.1" fill="#7dd3fc" stroke="#0284c7" stroke-width="0.25"/>
    <circle cx="46" cy="31" r="1.1" fill="#7dd3fc" stroke="#0284c7" stroke-width="0.25"/>
    <circle cx="64" cy="31" r="1.1" fill="#7dd3fc" stroke="#0284c7" stroke-width="0.25"/>
  </g>
</svg>
